<?xml version="1.0" ?>
<svg viewBox="0 0 102 102" xmlns="http://www.w3.org/2000/svg">
  <g transform="translate(-379,-673)"/>
  <g transform="translate(190,640)"/>
  <g transform="translate(190,33)"/>
  <g transform="translate(0.299401,0)">
    <path d="M99.401199 50A49.7006 50 0 0 1 49.7006 100 49.7006 50 0 0 1 0 50 49.7006 50 0 0 1 49.7006 0 49.7006 50 0 0 1 99.401199 50Z" fill="#000000"/>
    <path d="M99.401199 50A49.7006 50 0 0 1 49.7006 100 49.7006 50 0 0 1 0 50 49.7006 50 0 0 1 49.7006 0 49.7006 50 0 0 1 99.401199 50Z" fill="#ffffff"/>
    <path d="M96.401199 50A46.7006 47 0 0 1 49.7006 97 46.7006 47 0 0 1 3 50 46.7006 47 0 0 1 49.7006 3 46.7006 47 0 0 1 96.401199 50Z" fill="none" stroke="#eeeff3" stroke-width="6"/>
    <path d="M98.201199 50A48.500599 48.799999 0 0 1 49.7006 98.799999 48.500599 48.799999 0 0 1 1.2000008 50 48.500599 48.799999 0 0 1 49.7006 1.2000008 48.500599 48.799999 0 0 1 98.201199 50Z" fill="none" stroke="#ced1d9" stroke-width="2.4"/>
    <path d="M63.645371 49.280575A14.302331 14.028777 0 0 1 49.34304 63.309352 14.302331 14.028777 0 0 1 35.040709 49.280575 14.302331 14.028777 0 0 1 49.34304 35.251798 14.302331 14.028777 0 0 1 63.645371 49.280575Z" fill="#eceff1"/>
    <path d="M55.063973 30.215827l-12.156981 0 0 10.071943 3.84971 4.028777 -3.84971 4.028777 0 22.158273 12.156981 0 0 -10.071942 -3.849711 -4.028777 3.849711 -4.028777z" fill="#505a78"/>
    <path d="M81.10775 50A32.122269 32.33551 0 0 1 48.985481 82.33551 32.122269 32.33551 0 0 1 16.863213 50 32.122269 32.33551 0 0 1 48.985481 17.66449 32.122269 32.33551 0 0 1 81.10775 50Z" fill="none" stroke="#eeeff3" stroke-width="6.551999"/>
    <path d="M84.383751 50A35.39827 35.611511 0 0 1 48.985481 85.611511 35.39827 35.611511 0 0 1 13.587212 50 35.39827 35.611511 0 0 1 48.985481 14.388489 35.39827 35.611511 0 0 1 84.383751 50Z" fill="none" stroke="#1a8cff" stroke-width="9.172798"/>
  </g>
</svg>
