<?xml version="1.0" ?>
<svg viewBox="0 0 135.36 200" xmlns="http://www.w3.org/2000/svg">
  <path d="M34.35,199.98A33.33,33.33 135,0 0,67.66 166.64L67.66,133.33L34.35,133.33a33.33,33.33 0,1 0,0 66.64z" fill="#0acf83"/>
  <path d="M1.02,100A33.33,33.33 135,0 1,34.35 66.66L67.66,66.66L67.66,133.33L34.35,133.33A33.33,33.33 135,0 1,1.02 100Z" fill="#a259ff"/>
  <path d="M1.02,33.35A33.33,33.33 0,0 1,34.32 0.01L67.66,0.01L67.66,66.66L34.35,66.66A33.33,33.33 0,0 1,1.02 33.35Z" fill="#f24e1e"/>
  <path d="M67.66,0.01L101.00,0.01a33.33,33.33 0,1 1,0 66.64L67.66,66.66Z" fill="#ff7262"/>
  <path d="M134.34,100A33.33,33.33 45,1 1,101.00 66.66,33.33 33.33,45 0,1 134.34,100Z" fill="#1abcfe"/>
</svg>
