<?xml version="1.0" ?>
<svg height="184.22" viewBox="0 0 200 184.22" width="200" xmlns="http://www.w3.org/2000/svg">
  <path d="m99.99,184.22v0L136.82,70.89H63.17Z" fill="#e24329"/>
  <path d="M99.99,184.22 L63.17,70.89H11.56Z" fill="#fc6d26"/>
  <path d="m11.56,70.89v0L0.37,105.33c-1.01,3.14 0.10,6.58 2.76,8.52L99.99,184.22Z" fill="#fca326"/>
  <path d="M11.56,70.89H63.17L40.99,2.63c-1.14,-3.51 -6.11,-3.51 -7.24,0z" fill="#e24329"/>
  <path d="m99.99,184.22 l36.83,-113.33h51.60z" fill="#fc6d26"/>
  <path d="m188.43,70.89v0l11.19,34.44c1.01,3.14 -0.10,6.58 -2.76,8.52l-96.86,70.37z" fill="#fca326"/>
  <path d="M188.43,70.89H136.82L159.00,2.63c1.14,-3.51 6.11,-3.51 7.24,0z" fill="#e24329"/>
</svg>
