<?xml version="1.0" ?>
<svg height="52.885105" viewBox="0 0 200 52.885105" width="200" xmlns="http://www.w3.org/2000/svg">
  <path d="M23.784,0H40.712V52.885H23.784Z" fill="#33ccff"/>
  <path d="M0,0H16.904V52.885H0Z" fill="#33ccff"/>
  <path d="M79.33,0H96.257V52.885H79.33Z" fill="#33ccff"/>
  <path d="m124.827,0h16.928v52.885h-16.928z" fill="#33ccff"/>
  <path d="M170.84,0H187.772v52.885h-16.932z" fill="#33ccff"/>
  <path d="M40.657,0H62.402V16.912H40.657Z" fill="#ff4400"/>
  <path d="M40.657,21.674H55.522V38.602H40.657Z" fill="#ff4400"/>
  <path d="M67.164,0H79.595V16.912H67.164Z" fill="#ff4400"/>
  <path d="m96.046,0h12.431V16.912H96.046Z" fill="#ff4400"/>
  <path d="m112.658,0h12.431v16.912h-12.431z" fill="#ff4400"/>
  <path d="m141.544,0h12.431v16.912h-12.431z" fill="#ff4400"/>
  <path d="M158.683,0H171.114V16.912H158.683Z" fill="#ff4400"/>
  <path d="M187.569,0H200v16.912h-12.431z" fill="#ff4400"/>
  <path d="M79.33,0H96.257V16.912H79.33Z" fill="#000000"/>
  <path d="m124.827,0h16.928v16.912h-16.928z" fill="#000000"/>
  <path d="m170.852,0h16.928v16.912h-16.928z" fill="#000000"/>
  <path d="M23.784,0H40.712V16.912H23.784Z" fill="#000000"/>
  <path d="M23.784,21.674H40.712V38.606H23.784Z" fill="#000000"/>
</svg>
