<?xml version="1.0" ?>
<svg viewBox="0 0 128 128" xmlns="http://www.w3.org/2000/svg">
  <path d="M26.532,0L101.468,0A26.532,26.532 0,0 1,128 26.532L128,101.468A26.532,26.532 0,0 1,101.468 128L26.532,128A26.532,26.532 0,0 1,0 101.468L0,26.532A26.532,26.532 0,0 1,26.532 0z" fill="#d43377" stroke-width="0.25"/>
  <path d="M43.537,20.735L84.463,20.735A22.802,22.802 0,0 1,107.265 43.537L107.265,84.463A22.802,22.802 0,0 1,84.463 107.265L43.537,107.265A22.802,22.802 0,0 1,20.735 84.463L20.735,43.537A22.802,22.802 0,0 1,43.537 20.735z" fill="none" stroke="#ffffff" stroke-width="8"/>
  <path d="M64,64m-20.171,0a20.171,20.171 0,1 1,40.341 0a20.171,20.171 0,1 1,-40.341 0" fill="none" stroke="#ffffff" stroke-width="8"/>
  <path d="M86.408,35.943m-4.894,0a4.894,4.894 0,1 1,9.788 0a4.894,4.894 0,1 1,-9.788 0" fill="#ffffff"/>
</svg>
