<?xml version="1.0" ?>
<svg height="256.0" viewBox="0 0 256.0 256.0" width="256.0" xmlns="http://www.w3.org/2000/svg">
  <path d="M55,5L201,5A50,50 0,0 1,251 55L251,201A50,50 0,0 1,201 251L55,251A50,50 0,0 1,5 201L5,55A50,50 0,0 1,55 5z" fill="#F49C52"/>
  <path d="M57,10L199,10A47,47 0,0 1,246 57L246,199A47,47 0,0 1,199 246L57,246A47,47 0,0 1,10 199L10,57A47,47 0,0 1,57 10z" fill="#FB9E3AFF"/>
  <path d="M68,189m-24,0a24,24 0,1 1,48 0a24,24 0,1 1,-48 0" fill="#FFF"/>
  <path d="M160,213h-34a82,82 0,0 0,-82 -82v-34a116,116 0,0 1,116 116z" fill="#FFF"/>
  <path d="M184,213A140,140 0,0 0,44 73V38a175,175 0,0 1,175 175z" fill="#FFF"/>
</svg>
