<?xml version="1.0" ?>
<svg height="128" viewBox="0 0 128 128" width="128" xmlns="http://www.w3.org/2000/svg">
  <path d="M10.296,0L117.704,0A10.296,10.296 0,0 1,128 10.296L128,117.704A10.296,10.296 0,0 1,117.704 128L10.296,128A10.296,10.296 0,0 1,0 117.704L0,10.296A10.296,10.296 0,0 1,10.296 0z" fill="#FFFFFFFF"/>
  <path d="M13.774,70.122h71.791v9.878h-71.791z" fill="#f2f2f2"/>
  <path d="M13.774,85.426h88.904v9.878h-88.904z" fill="#f2f2f2"/>
  <path d="M13.774,101.287h56.904v9.878h-56.904z" fill="#f2f2f2"/>
  <path d="m10.335,0c-5.726,0 -10.335,4.61 -10.335,10.335v8.348,10.912 10.335h10.335,107.329 10.335v-10.335,-10.912 -8.348c0,-5.726 -4.61,-10.335 -10.335,-10.335z" fill="#086dd5"/>
  <path d="M13.774,53.983h100.035v9.878h-100.035z" fill="#f2f2f2"/>
</svg>
